<svg width="145" height="23" viewBox="0 0 145 23" fill="none" xmlns="http://www.w3.org/2000/svg">
<path fill-rule="evenodd" clip-rule="evenodd" d="M128.814 5.86394C129.776 3.74475 131.605 0 132.521 0C133.852 -0.00127778 136.766 7.26544 136.766 7.26544C136.766 7.26544 139.463 7.49417 141.643 7.728C142.801 7.85194 144.868 8.04105 144.997 8.66078C145.025 8.79494 144.858 9.34311 144.556 9.72517C143.276 11.3479 139.954 14.8248 139.954 14.8248C139.954 14.8248 140.136 16.4859 140.299 18.3029C140.403 19.4784 140.684 21.8602 140.582 22.2857C140.471 22.7547 140.272 22.8824 140.065 22.9566C139.524 23.1482 138.267 22.4033 136.8 21.7209C134.8 20.7894 132.554 19.7941 132.554 19.7941C132.554 19.7941 131.072 20.5467 129.315 21.2814C127.439 22.0659 125.538 23.3591 124.745 22.9042C124.25 22.6192 124.617 20.3984 124.807 18.4217C124.985 16.5574 125.14 14.8542 125.14 14.8542C125.14 14.8542 124.039 13.5994 122.757 12.2577C121.373 10.8074 119.685 9.24217 120.051 8.66717C120.326 8.23272 121.586 8.00017 123.7 7.74589C125.946 7.475 128.19 7.28333 128.19 7.28333C128.19 7.28333 128.434 6.7002 128.814 5.86394Z" fill="#38415D"/>
<path fill-rule="evenodd" clip-rule="evenodd" d="M98.8138 5.86394C99.7757 3.74475 101.605 0 102.521 0C103.852 -0.00127778 106.766 7.26544 106.766 7.26544C106.766 7.26544 109.463 7.49417 111.643 7.728C112.801 7.85194 114.868 8.04105 114.997 8.66078C115.025 8.79494 114.858 9.34311 114.556 9.72517C113.276 11.3479 109.954 14.8248 109.954 14.8248C109.954 14.8248 110.136 16.4859 110.299 18.3029C110.403 19.4784 110.684 21.8602 110.582 22.2857C110.471 22.7547 110.272 22.8824 110.065 22.9566C109.524 23.1482 108.267 22.4033 106.8 21.7209C104.8 20.7894 102.554 19.7941 102.554 19.7941C102.554 19.7941 101.072 20.5467 99.3154 21.2814C97.4387 22.0659 95.5382 23.3591 94.7451 22.9042C94.2501 22.6192 94.617 20.3984 94.8071 18.4217C94.9853 16.5574 95.1397 14.8542 95.1397 14.8542C95.1397 14.8542 94.039 13.5994 92.7575 12.2577C91.373 10.8074 89.685 9.24217 90.0506 8.66717C90.3264 8.23272 91.5855 8.00017 93.6998 7.74589C95.9461 7.475 98.1897 7.28333 98.1897 7.28333C98.1897 7.28333 98.4342 6.7002 98.8138 5.86394Z" fill="#38415D"/>
<path fill-rule="evenodd" clip-rule="evenodd" d="M68.8138 5.86394C69.7757 3.74475 71.6051 0 72.5212 0C73.8515 -0.00127778 76.7656 7.26544 76.7656 7.26544C76.7656 7.26544 79.4632 7.49417 81.6435 7.728C82.8009 7.85194 84.8677 8.04105 84.997 8.66078C85.0247 8.79494 84.8584 9.34311 84.5562 9.72517C83.276 11.3479 79.9541 14.8248 79.9541 14.8248C79.9541 14.8248 80.1363 16.4859 80.2986 18.3029C80.4029 19.4784 80.684 21.8602 80.5824 22.2857C80.4715 22.7547 80.2722 22.8824 80.065 22.9566C79.5239 23.1482 78.2675 22.4033 76.7999 21.7209C74.8004 20.7894 72.5542 19.7941 72.5542 19.7941C72.5542 19.7941 71.0721 20.5467 69.3154 21.2814C67.4387 22.0659 65.5382 23.3591 64.7451 22.9042C64.2501 22.6192 64.617 20.3984 64.8071 18.4217C64.9853 16.5574 65.1397 14.8542 65.1397 14.8542C65.1397 14.8542 64.039 13.5994 62.7575 12.2577C61.373 10.8074 59.685 9.24217 60.0506 8.66717C60.3264 8.23272 61.5855 8.00017 63.6998 7.74589C65.9461 7.475 68.1897 7.28333 68.1897 7.28333C68.1897 7.28333 68.4342 6.7002 68.8138 5.86394Z" fill="#38415D"/>
<path fill-rule="evenodd" clip-rule="evenodd" d="M38.8138 5.86394C39.7757 3.74475 41.6051 0 42.5212 0C43.8515 -0.00127778 46.7656 7.26544 46.7656 7.26544C46.7656 7.26544 49.4632 7.49417 51.6435 7.728C52.8009 7.85194 54.8677 8.04105 54.997 8.66078C55.0247 8.79494 54.8584 9.34311 54.5562 9.72517C53.276 11.3479 49.9541 14.8248 49.9541 14.8248C49.9541 14.8248 50.1363 16.4859 50.2986 18.3029C50.4029 19.4784 50.684 21.8602 50.5824 22.2857C50.4715 22.7547 50.2722 22.8824 50.065 22.9566C49.5239 23.1482 48.2675 22.4033 46.7999 21.7209C44.8004 20.7894 42.5542 19.7941 42.5542 19.7941C42.5542 19.7941 41.0721 20.5467 39.3154 21.2814C37.4387 22.0659 35.5382 23.3591 34.7451 22.9042C34.2501 22.6192 34.617 20.3984 34.8071 18.4217C34.9853 16.5574 35.1397 14.8542 35.1397 14.8542C35.1397 14.8542 34.039 13.5994 32.7575 12.2577C31.373 10.8074 29.685 9.24217 30.0506 8.66717C30.3264 8.23272 31.5855 8.00017 33.6998 7.74589C35.9461 7.475 38.1897 7.28333 38.1897 7.28333C38.1897 7.28333 38.4342 6.7002 38.8138 5.86394Z" fill="#38415D"/>
<path fill-rule="evenodd" clip-rule="evenodd" d="M8.81378 5.86394C9.77571 3.74475 11.6051 0 12.5212 0C13.8515 -0.00127778 16.7656 7.26544 16.7656 7.26544C16.7656 7.26544 19.4632 7.49417 21.6435 7.728C22.8009 7.85194 24.8677 8.04105 24.997 8.66078C25.0247 8.79494 24.8584 9.34311 24.5562 9.72517C23.276 11.3479 19.9541 14.8248 19.9541 14.8248C19.9541 14.8248 20.1363 16.4859 20.2986 18.3029C20.4029 19.4784 20.684 21.8602 20.5824 22.2857C20.4715 22.7547 20.2722 22.8824 20.065 22.9566C19.5239 23.1482 18.2675 22.4033 16.7999 21.7209C14.8004 20.7894 12.5542 19.7941 12.5542 19.7941C12.5542 19.7941 11.0721 20.5467 9.31544 21.2814C7.43872 22.0659 5.53824 23.3591 4.74506 22.9042C4.25014 22.6192 4.61704 20.3984 4.80709 18.4217C4.98525 16.5574 5.13967 14.8542 5.13967 14.8542C5.13967 14.8542 4.03898 13.5994 2.75747 12.2577C1.37303 10.8074 -0.314963 9.24217 0.0506147 8.66717C0.326448 8.23272 1.58551 8.00017 3.69979 7.74589C5.94605 7.475 8.18967 7.28333 8.18967 7.28333C8.18967 7.28333 8.43418 6.7002 8.81378 5.86394Z" fill="#38415D"/>
</svg>
